<?xml version="1.0" standalone="no"?>
<!DOCTYPE svg PUBLIC "-//W3C//DTD SVG 20010904//EN"
 "http://www.w3.org/TR/2001/REC-SVG-20010904/DTD/svg10.dtd">
<svg version="1.0" xmlns="http://www.w3.org/2000/svg"
 viewBox="0 0 2600.000000 2600.000000"
 preserveAspectRatio="xMidYMid meet">
<metadata>
Created by potrace 1.15, written by Peter Selinger 2001-2017
</metadata>
<g transform="translate(0.000000,2600.000000) scale(0.100000,-0.100000)"
fill="#000000" stroke="none">
<path d="M10360 18090 c-553 -52 -1028 -186 -1482 -416 -381 -194 -678 -412
-998 -733 -362 -363 -602 -710 -801 -1158 -193 -433 -300 -888 -332 -1408 -2
-37 -4 -40 -42 -48 -254 -55 -456 -116 -654 -197 -997 -410 -1723 -1267 -1926
-2275 -71 -351 -78 -730 -19 -1085 83 -502 300 -985 631 -1400 85 -107 311
-340 423 -434 737 -627 1729 -907 2705 -765 495 72 982 256 1378 521 l88 59
73 -55 c262 -197 605 -364 927 -451 637 -172 1319 -105 1915 190 240 118 463
270 634 432 37 35 71 63 75 63 4 0 39 -30 78 -66 394 -364 882 -613 1432 -728
371 -77 781 -86 1160 -25 920 149 1715 703 2116 1474 34 66 63 121 64 123 2 1
60 -17 131 -41 311 -107 574 -165 939 -209 147 -17 673 -17 820 0 369 45 613
98 916 201 794 269 1458 770 1896 1431 262 396 418 803 495 1295 19 120 22
180 22 425 0 307 -12 423 -69 675 -240 1059 -1053 1966 -2155 2403 -707 281
-1496 358 -2257 221 -538 -96 -1089 -320 -1518 -617 -44 -30 -84 -55 -90 -55
-5 0 -67 37 -138 82 -531 342 -1200 564 -1912 637 -171 17 -622 24 -755 10
l-75 -7 -70 113 c-93 149 -246 354 -382 508 -590 670 -1418 1125 -2311 1271
-241 39 -718 59 -932 39z"/>
</g>
</svg>
