<?xml version="1.0" standalone="no"?>
<!DOCTYPE svg PUBLIC "-//W3C//DTD SVG 20010904//EN"
 "http://www.w3.org/TR/2001/REC-SVG-20010904/DTD/svg10.dtd">
<svg version="1.0" xmlns="http://www.w3.org/2000/svg"
 viewBox="0 0 2600.000000 2600.000000"
 preserveAspectRatio="xMidYMid meet">
<metadata>
Created by potrace 1.15, written by Peter Selinger 2001-2017
</metadata>
<g transform="translate(0.000000,2600.000000) scale(0.100000,-0.100000)"
fill="#000000" stroke="none">
<path d="M11920 19634 c-735 -25 -1418 -196 -2050 -513 -788 -396 -1435 -973
-1923 -1716 -151 -231 -296 -503 -407 -765 -29 -69 -54 -126 -55 -128 -1 -1
-50 9 -109 23 -162 38 -363 71 -546 90 -132 14 -222 16 -450 12 -292 -6 -396
-16 -650 -62 -1216 -220 -2283 -1024 -2844 -2143 -552 -1102 -564 -2407 -32
-3517 563 -1173 1650 -1997 2931 -2220 277 -48 707 -68 976 -46 443 37 844
134 1234 296 75 32 140 53 144 49 4 -5 45 -76 90 -158 220 -399 495 -737 830
-1019 557 -470 1197 -744 1936 -829 169 -19 609 -16 785 5 775 96 1482 425
2031 946 54 50 101 91 106 91 5 0 29 -21 53 -46 25 -25 95 -87 155 -138 626
-528 1323 -831 2145 -933 204 -25 694 -25 900 0 950 117 1771 522 2423 1196
405 419 707 910 908 1475 l14 39 265 2 c279 2 398 13 645 60 468 89 945 288
1345 563 251 172 576 472 754 695 390 490 642 1044 745 1637 40 232 46 319 45
630 0 317 -8 411 -55 660 -258 1362 -1303 2467 -2647 2800 -513 127 -1090 137
-1587 29 -49 -10 -94 -19 -101 -19 -6 0 -44 60 -84 133 -248 450 -565 796
-985 1072 -485 319 -1011 476 -1600 477 -485 0 -892 -96 -1328 -315 l-177 -89
-67 73 c-99 111 -294 300 -423 411 -795 687 -1782 1100 -2815 1177 -154 12
-406 19 -525 15z"/>
</g>
</svg>
