<?xml version="1.0" encoding="utf-8"?>
<svg viewBox="440.5640563964844 144.248291015625 442.2998962402344 283.3999938964844" width="442.2998962402344" height="283.3999938964844" xmlns="http://www.w3.org/2000/svg"><g transform="matrix(1, 0, 0, 1, 0, 0)"><path class="st0" d="M737.7,353c-2-1.3-3.1-3.7-2.6-6.1l12.3-60.8l-57-44c-1.8-1.4-2.7-3.8-2.1-6.1c0.6-2.3,2.4-4,4.8-4.3&#10;&#9;&#9;&#9;l69.4-10.9l7.3-21.5c-37.2,8.5-124.5,31.9-196.7,78.4c22.6-6.2,50.8-13.1,65-13.1c1.9,0,3.5,0.1,5,0.3c2.4,0.4,4.3,2.2,4.8,4.6&#10;&#9;&#9;&#9;c0.5,2.4-0.6,4.8-2.6,6.1c-1.6,1-145.7,92.2-200.1,184.5c46.9-34,163.6-115.8,219.2-129.6c2.5-0.6,5.1,0.4,6.4,2.6&#10;&#9;&#9;&#9;c1.3,2.2,1.1,5-0.6,6.9c-0.3,0.4-23.7,27.5-40.1,62.4c19.4-21.7,49.7-50.2,83.8-63.7c1.6-0.6,3.5-0.5,5,0.4&#10;&#9;&#9;&#9;c1.5,0.9,2.6,2.4,2.9,4.1c0.2,1.1,2.9,17.8,1,38.7c5.6-8.5,12.2-18.2,19.6-28.2c-0.4,0.1-0.8,0.2-1.3,0.2&#10;&#9;&#9;&#9;C739.7,353.9,738.6,353.6,737.7,353z" style="fill: rgb(204, 204, 204); opacity: 1;" transform="matrix(1, 0, 0, 1, -4.635962963104248, -32.4517059326172)"/><path class="st0" d="M844.3,279.9l43.2-51.2l-57-1.2c-1.8,0-3.5-0.9-4.6-2.3l-36.3-48.5l-17.3,51.2c-0.7,2.1-2.5,3.6-4.6,3.9&#10;&#9;&#9;&#9;l-59.4,9.4l49.1,37.9c1.8,1.4,2.6,3.6,2.2,5.8l-10,49.4l51.5-38.3c2.1-1.6,5-1.5,7,0l48.5,36.8l-13.5-47.5&#10;&#9;&#9;&#9;C842.6,283.4,843.1,281.4,844.3,279.9z" style="fill: rgb(204, 204, 204); opacity: 1;" transform="matrix(1, 0, 0, 1, -4.635962963104248, -32.4517059326172)"/></g></svg>